<svg viewBox="0 0 350 220.7800813177901" height="220.7800813177901" width="350">
	<defs id="SvgjsDefs3552">
	</defs>
	<g id="SvgjsG3553" featurekey="symbolFeature-0" transform="matrix(1.5283843049359103,0,0,1.5283843049359103,97.66375577358188,-3.8209607623397757)" fill="#000000">
		<g xmlns="http://www.w3.org/2000/svg">
			<path d="M72.8,49.8c-0.2-1.5-0.3-3.1-0.6-4.7c-0.3-2.1-2-3.7-4.1-3.9c-1.5-0.1-3-0.3-4.4-0.4c-2.5-0.2-4.9-0.3-7.2-0.4   c-2.3-0.1-4.5-0.2-6.6-0.2c-2.2-0.1-4.3-0.1-6.4-0.1c-2.1,0-4.2,0-6.4,0.1c-2.1,0-4.3,0.1-6.6,0.2c-2.3,0.1-4.7,0.3-7.2,0.4   c-1.4,0.1-2.9,0.2-4.4,0.4C17,41.3,15.3,43,15,45.1c-0.2,1.6-0.4,3.2-0.6,4.7c-0.3,2.6-0.4,5-0.6,7.3c-0.1,2.3-0.2,4.6-0.2,6.8   c0,2.2,0.1,4.5,0.2,6.8c0.1,2.3,0.3,4.7,0.6,7.3c0.2,1.5,0.3,3.1,0.6,4.7c0.3,2.1,2,3.7,4.1,3.9c1.5,0.1,3,0.3,4.4,0.4   c2.5,0.2,4.9,0.3,7.2,0.4c2.3,0.1,4.5,0.2,6.6,0.2c2.2,0.1,4.3,0.1,6.4,0.1c2.1,0,4.2,0,6.4-0.1c2.1-0.1,4.3-0.1,6.6-0.2   c2.3-0.1,4.7-0.3,7.2-0.4c1.4-0.1,2.9-0.2,4.4-0.4c2.1-0.2,3.8-1.8,4.1-3.9c0.2-1.6,0.4-3.2,0.6-4.7c0.3-2.6,0.4-5,0.6-7.3   c0.1-2.3,0.2-4.6,0.2-6.8c0-2.2-0.1-4.5-0.2-6.8C73.2,54.7,73.1,52.3,72.8,49.8z M24,47.4c-0.4,0-0.8,0.1-1.2,0.1   c-0.1,0-0.3,0-0.4,0c0,0,0,0-0.1,0c-0.4,0-0.7-0.3-0.7-0.7c0-0.4,0.3-0.7,0.7-0.8c0.1,0,0.3,0,0.4,0c0.4,0,0.8-0.1,1.3-0.1   c0.4,0,0.7,0.3,0.8,0.7C24.6,47,24.3,47.4,24,47.4z M37.4,46.7c-0.9,0-1.8,0-2.6,0.1c-0.1,0-0.2,0-0.4,0c-1.1,0-2.3,0.1-3.4,0.1   c-1.4,0.1-2.8,0.1-4.2,0.2c0,0,0,0,0,0c-0.4,0-0.7-0.3-0.7-0.7c0-0.4,0.3-0.7,0.7-0.8c1.5-0.1,2.9-0.2,4.2-0.2   c1.2-0.1,2.3-0.1,3.5-0.1c0.1,0,0.2,0,0.4,0c0.9,0,1.8-0.1,2.7-0.1c0.4,0,0.7,0.3,0.7,0.7C38.1,46.4,37.8,46.7,37.4,46.7z">
			</path>
			<rect x="76.8" y="49.8" width="12.7" height="1.2">
			</rect>
			<rect x="76.8" y="52.2" width="12.7" height="1.2">
			</rect>
			<rect x="76.8" y="54.7" width="12.7" height="1.2">
			</rect>
			<rect x="76.8" y="47.4" width="12.7" height="1.2">
			</rect>
			<rect x="76.8" y="42.6" width="12.7" height="1.2">
			</rect>
			<path d="M80.2,69.3c-1.6,1.6-1.6,4.3,0,5.9c1.6,1.6,4.3,1.6,5.9,0c1.6-1.6,1.6-4.3,0-5.9C84.5,67.6,81.8,67.6,80.2,69.3z    M85.8,71.2c-0.4,0.5-1.2,0.4-1.6,0c-0.4-0.5-0.4-1.2,0-1.6c0.4-0.4,1.2-0.4,1.6,0C86.3,70,86.3,70.7,85.8,71.2z">
			</path>
			<rect x="76.8" y="45" width="12.7" height="1.2">
			</rect>
			<rect x="76.8" y="57.1" width="12.7" height="1.2">
			</rect>
			<path d="M83.1,79c-2.3,0-4.2,1.9-4.2,4.2c0,2.3,1.9,4.2,4.2,4.2c2.3,0,4.2-1.9,4.2-4.2C87.3,80.9,85.5,79,83.1,79z M80.5,84.4   c-0.6,0-1.1-0.5-1.1-1.2c0-0.6,0.5-1.2,1.1-1.1c0.6,0,1.1,0.5,1.1,1.1C81.7,83.8,81.2,84.4,80.5,84.4z">
			</path>
			<path d="M89.7,30.3H37.4c-0.1-0.6-0.3-1.2-0.5-1.7l17.6-6.2c0.7-0.3,1.2-0.9,1.3-1.6l2.1-0.7l15-5.4l0.1,0.2   c0.2,0.4,0.5,0.6,0.9,0.6c0.1,0,0.3,0,0.4-0.1c0.5-0.2,0.8-0.8,0.5-1.3l-1-2.2c-0.2-0.5-0.8-0.8-1.3-0.5c-0.5,0.2-0.8,0.8-0.5,1.3   l0.1,0.2l-14.9,5.3l-2.1,0.7c-0.5-0.5-1.3-0.6-2-0.4l-18.8,6.7c-1.4-1.1-3.2-1.8-5.1-1.8c-0.9,0-1.7,0.1-2.5,0.4l-7.3-8.3   c-0.5-0.6-1.2-0.8-1.9-0.6L8.2,4.3l0.1-0.1c0.4-0.4,0.4-1,0-1.4c-0.4-0.4-1-0.4-1.4,0L5.1,4.4c-0.4,0.4-0.4,1,0,1.4   C5.3,6,5.6,6.1,5.9,6.1c0.3,0,0.5-0.1,0.7-0.3l0.1-0.1l9.4,10.6c-0.2,0.7-0.1,1.4,0.4,2l6.9,7.8c-1.1,1.2-1.9,2.6-2.1,4.3h-8.3   c-3.6,0-6.6,3-6.6,6.6v52.6c0,3.6,3,6.6,6.6,6.6h6.3v2.4h11.3V96h41.6v2.4h11.3V96h6.3c3.6,0,6.6-3,6.6-6.6V36.9   C96.3,33.2,93.3,30.3,89.7,30.3z M92.2,89.5L92.2,89.5c0,1.4-1.1,2.5-2.5,2.5H12.9c-1.4,0-2.5-1.1-2.5-2.5V36.9   c0-1.4,1.1-2.5,2.5-2.5h8.6h15.6h52.5c1.4,0,2.5,1.1,2.5,2.5V89.5z">
			</path>
			<rect x="76.8" y="59.5" width="12.7" height="1.2">
			</rect>
			<rect x="76.8" y="64.3" width="12.7" height="1.2">
			</rect>
			<rect x="76.8" y="61.9" width="12.7" height="1.2">
			</rect>
		</g>
	</g>
	<g id="SvgjsG3554" featurekey="nameFeature-0" transform="matrix(1.8673637367725078,0,0,1.8673637367725078,-0.7469465632231042,145.33858528366667)" fill="#000000">
		<path d="M13.6 16.4 l0 23.6 l-5.2 0 l0 -23.6 l-8 0 l0 -4.4 l21.2 0 l0 3 l-1.4 1.4 l-6.6 0 z M25.69 40 l0 -28 l19.2 0 l0 3 l-1.4 1.4 l-12.6 0 l0 7.2 l10.2 0 l0 4.4 l-10.2 0 l0 7.6 l14 0 l0 4.4 l-19.2 0 z M49.379999999999995 12 l5.2 0 l0 23.6 l13.6 0 l0 4.4 l-18.8 0 l0 -28 z M72.27 40 l0 -28 l19.2 0 l0 3 l-1.4 1.4 l-12.6 0 l0 7.2 l10.2 0 l0 4.4 l-10.2 0 l0 7.6 l14 0 l0 4.4 l-19.2 0 z M104.36 12 l5.2 0 l0 22.2 c0 3.6 -2.6 6.2 -6.6 6.2 l-9.4 0 l0 -4.4 l8 0 c1.6 0 2.8 -1.2 2.8 -2.6 l0 -21.4 z M130.65 11.600000000000001 c4 0 6.6 2.6 6.6 6.2 l0 16.4 c0 3.6 -2.6 6.2 -6.6 6.2 l-8.8 0 c-4 0 -6.6 -2.6 -6.6 -6.2 l0 -16.4 c0 -3.6 2.6 -6.2 6.6 -6.2 l8.8 0 z M123.25 16 c-1.6 0 -2.8 1.2 -2.8 2.6 l0 14.8 c0 1.4 1.2 2.6 2.8 2.6 l6 0 c1.6 0 2.8 -1.2 2.8 -2.6 l0 -14.8 c0 -1.4 -1.2 -2.6 -2.8 -2.6 l-6 0 z M148.14 12 l0 11.6 l5 0 l5.4 -11.6 l5.2 0 l0 2.2 l-6.4 11.6 l6.8 12 l0 2.2 l-5.2 0 l-5.8 -12 l-5 0 l0 12 l-5.2 0 l0 -28 l5.2 0 z M168.63 40 l0 -28 l19.2 0 l0 3 l-1.4 1.4 l-12.6 0 l0 7.2 l10.2 0 l0 4.4 l-10.2 0 l0 7.6 l14 0 l0 4.4 l-19.2 0 z">
		</path>
	</g>
</svg>
